<?xml version="1.0" ?>
  <svg 
    fill="#4285F4"
    stroke="#000000"
    stroke-width="4" 
    xmlns="http://www.w3.org/2000/svg" 
    xmlns:xlink="http://www.w3.org/1999/xlink" 
    width="24" 
    height="24" 
    viewport="0 0 24 24" 
    viewBox="0 0 512 512"
  >
    <path 
      transform="scale(0.8 0.8)" 
      d="M322.969 143.77L282.583 143.776C281.194 143.776 279.658 143.916 278.294 143.644L278.213 103.091C278.223 90.8428 283.685 92.4019 293.096 92.4088L314.627 92.4449L314.652 80.3592C314.674 75.1407 314.496 72.6371 319.75 70.069L320.778 69.9666C328.512 69.3306 328.091 76.5774 328.109 82.2262L328.112 92.2736C335.695 92.9403 343.75 92.4073 351.384 92.4244C368.252 92.4623 364.667 98.6989 364.664 111.881L364.648 143.754L322.969 143.77Z"
    />
    <path 
      transform="scale(0.8 0.8)" 
      d="M388.362 239.287L247.832 239.309L247.847 169.188C247.848 162.894 246.498 156.014 254.508 154.117L374.956 154.072C389.72 154.066 395.368 150.153 395.384 167.972L395.362 239.209L388.362 239.287Z"
    />
    <path 
      transform="scale(0.8 0.8)" 
      d="M437.636 335.284L437.672 304.661C437.711 299.714 439.608 295.462 445.469 295.219L512.35 295.313C514.237 295.317 516.655 295.147 518.441 295.791L518.75 295.911C524.866 298.195 524.054 302.733 524.06 308.077L524.065 367.305L533.745 367.249C546.592 367.229 544.386 374.337 544.317 383.484L544.251 488.417L553.978 488.439C555.75 488.449 557.75 488.29 559.483 488.638C568.367 490.418 568.108 503.261 560.996 507.47L560.56 507.72C559.255 508.497 557.893 508.553 556.406 508.602L107.802 508.703C100.722 508.702 93.3931 509.08 86.3374 508.631C74.1608 507.857 69.1117 488.368 89.9236 488.363L97.6922 488.372L97.7754 356.591C97.7794 344.44 94.5931 335.717 110.865 335.653L119.06 335.649L119.076 231.933C119.068 224.561 116.57 215.7 125.435 212.872L189.926 212.788C203.093 212.796 204.254 214.608 204.263 226.583L204.417 488.46L227.111 488.571L227.157 260.45C227.166 255.727 228.277 249.891 234.375 249.534C240.62 249.169 247.193 249.602 253.467 249.612L405.74 249.638C406.867 249.649 408.031 249.579 409.082 250.047L409.423 250.213C416.334 253.456 415.089 259.972 415.085 266.267L414.928 488.46C417.444 488.757 420.231 488.529 422.781 488.524L437.454 488.487C437.749 487.715 437.618 486.772 437.618 485.946L437.636 335.284ZM321.561 279.436C318.467 280.033 315.462 281.247 313.592 283.945C312.963 284.853 313.392 347.751 313.392 353.416L313.394 449.501C313.409 456.5 312.697 462.931 321.88 463.918C324.811 463.258 327.531 461.391 329.096 458.778C329.969 457.321 329.456 388.04 329.456 379.97L329.437 291.375C329.421 284.939 329.901 280.346 321.561 279.436ZM376.409 334.132C373.86 334.937 370.747 336.271 369.372 338.749C368.379 340.537 369.024 369.518 369.026 373.95L368.943 488.473L378.281 488.474L385.975 488.479L385.909 354.922C385.902 348.218 388.197 333.69 376.945 334.105L376.409 334.132ZM264.618 334.389C255.84 337.459 256.796 341.093 256.812 349.097L256.706 488.512L266.614 488.474L273.51 488.583C273.85 487.983 273.703 487.126 273.704 486.439L273.74 350.046C273.73 344.08 274.586 333.381 264.618 334.389ZM150.768 373.816C145.963 375.797 144.071 377.383 144.038 382.488L144.035 488.443L155.352 488.474L161.398 488.489L161.462 392.375C161.459 384.834 163.425 373.23 152.015 373.713L150.768 373.816ZM490.419 405.376C486.422 406.111 481.748 408.036 481.525 412.656L481.456 480.299C481.456 482.702 481.133 485.608 481.47 487.964L490.565 488.474L498.441 488.462L498.433 418.712C498.409 411.986 498.909 406.643 490.419 405.376Z"
    />
  </svg>